# xmcd CD database file
#
# Track frame offsets:
#	150
#	21911
#	34995
#	46613
#	80364
#	108528
#	118951
#	128990
#	140266
#	151747
#	163805
#	176513
#	189239
#	203441
#	215615
#	227676
#	239350
#	251516
#	262486
#	274647
#	288459
#	299067
#	314381
#	327936
#	342495
#
# Disc length: 4749 seconds
#
# Revision: 0
# Processed by: cddbd v1.5.1PL2 Copyright (c) Steve Scherf et al.
# Submitted via: CDex 1.51
#
DISCID=7c128b19
DTITLE=Ray Charles - Ray
DYEAR=2005
DGENRE=Blues
TTITLE0=What'd I Say (Live)
TTITLE1=Baby won't you please come home
TTITLE2=CC Rider (See what you have done)
TTITLE3=Georgia on my mind (Live)
TTITLE4=I got a woman
TTITLE5=Hey now
TTITLE6=I'm moving on (Live)
TTITLE7=Jack she's on the ball
TTITLE8=Tell me baby (What have I done)
TTITLE9=I'm glad for your sake
TTITLE10=The snow is falling
TTITLE11=Feelin' sad
TTITLE12=Someday (Blues is my middle name)
TTITLE13=Honey hiney
TTITLE14=Can't you see me darling
TTITLE15=How long, how long blues
TTITLE16=I love you i love you (I will never let you go)
TTITLE17=A sentimental blues
TTITLE18=I've had my fun
TTITLE19=Misery in my heart (Going down to the river)
TTITLE20=All the girls in town (They're crazy about me)
TTITLE21=Sinner's prayer
TTITLE22=The mignight hour
TTITLE23=Funny (But I still love you)
TTITLE24=This love of mine
EXTD=YEAR: 2005
EXTT0=
EXTT1=
EXTT2=
EXTT3=
EXTT4=
EXTT5=
EXTT6=
EXTT7=
EXTT8=
EXTT9=
EXTT10=
EXTT11=
EXTT12=
EXTT13=
EXTT14=
EXTT15=
EXTT16=
EXTT17=
EXTT18=
EXTT19=
EXTT20=
EXTT21=
EXTT22=
EXTT23=
EXTT24=
PLAYORDER=
